# xmcd CD database file
#
# Track frame offsets:
#	150
#	13628
#	28968
#	41186
#	58852
#	79258
#	96513
#	109450
#	126143
#	137106
#	149259
#	164503
#	178552
#	194937
#	207816
#	219741
#	234045
#	248911
#	263538
#	278278
#	291974
#
# Disc length: 4209 seconds
#
# Revision: 0
# Processed by: cddbd v1.5.1PL0 Copyright (c) Steve Scherf et al.
# Submitted via: CDex 1.60beta1
#
DISCID=46106f15
DTITLE=Various Artist - Just Hatched
DYEAR=1900
DGENRE=Jazz
TTITLE0=Louis Armstrong/Ain't Misbehavin'
TTITLE1=Louis Armstrong/St. James Infirmary
TTITLE2=Rebirth Brass Band/Blackbird Special
TTITLE3=Storyville Stompers Brass Band/Mama Inez
TTITLE4=Arlee Leonard/The Ride
TTITLE5=Johnny Angel and The Swingin' Demons/Red Lipstick
TTITLE6=Fredy Omar Con Su Bando/Mambo #504
TTITLE7=Professor Longhair/Big Chief
TTITLE8=G.G. Shinn/She's A Big Fat Woman
TTITLE9=Coffee Featuring Earnest Scott/She Shot A Hole In My Sole
TTITLE10=Kipori "Baby Wolf" Woods/Just Like King Kong
TTITLE11=David and Roselyn/Royal and Toulouse
TTITLE12=Bob Willis and His Texas Playboys/Basin Street
TTITLE13=Dwayne Dopsie And The Zydeco Hellraisers/Olde Time Zydeco
TTITLE14=Hunter Hayes/Valse De Calcasieu (The Calcasieu Waltz)
TTITLE15=The Spiritualettes/Little Boy
TTITLE16=Miguel De Anda/Now Faith Is
TTITLE17=Serv-On/My City
TTITLE18=Lloyd "King" Daly/New Thing
TTITLE19=Wahoo/Alligator Meat
TTITLE20=Brian Stoltz/Sync/Sink?
EXTD=
EXTT0=
EXTT1=
EXTT2=
EXTT3=
EXTT4=
EXTT5=
EXTT6=
EXTT7=
EXTT8=
EXTT9=
EXTT10=
EXTT11=
EXTT12=
EXTT13=
EXTT14=
EXTT15=
EXTT16=
EXTT17=
EXTT18=
EXTT19=
EXTT20=
PLAYORDER=
